<?xml version="1.0" encoding="UTF-8"?>
<svg id="Capa_1" xmlns="http://www.w3.org/2000/svg" version="1.1" xmlns:xlink="http://www.w3.org/1999/xlink" viewBox="0 0 100 100">
  <!-- Generator: Adobe Illustrator 29.0.0, SVG Export Plug-In . SVG Version: 2.1.0 Build 186)  -->
  <defs>
    <style>
      .st0 {
        fill: url(#Degradado_sin_nombre_4);
      }

      .st1 {
        fill: url(#Degradado_sin_nombre_2);
      }

      .st2 {
        fill: url(#Degradado_sin_nombre_3);
      }

      .st3 {
        fill: url(#Degradado_sin_nombre);
      }
    </style>
    <linearGradient id="Degradado_sin_nombre" data-name="Degradado sin nombre" x1="17" y1="-11.3" x2="117" y2="86.7" gradientUnits="userSpaceOnUse">
      <stop offset="0" stop-color="#bf8000"/>
      <stop offset=".5" stop-color="#ffc000"/>
      <stop offset="1" stop-color="#947800"/>
    </linearGradient>
    <linearGradient id="Degradado_sin_nombre_2" data-name="Degradado sin nombre 2" x1="2.5" y1="3.5" x2="102.5" y2="101.5" gradientUnits="userSpaceOnUse">
      <stop offset="0" stop-color="#bf8000"/>
      <stop offset=".5" stop-color="#ffc000"/>
      <stop offset="1" stop-color="#947800"/>
    </linearGradient>
    <linearGradient id="Degradado_sin_nombre_3" data-name="Degradado sin nombre 3" x1="2.5" y1="3.5" x2="102.5" y2="101.5" gradientUnits="userSpaceOnUse">
      <stop offset="0" stop-color="#bf8000"/>
      <stop offset=".5" stop-color="#ffc000"/>
      <stop offset="1" stop-color="#947800"/>
    </linearGradient>
    <linearGradient id="Degradado_sin_nombre_4" data-name="Degradado sin nombre 4" x1="2.5" y1="3.5" x2="102.5" y2="101.5" gradientUnits="userSpaceOnUse">
      <stop offset="0" stop-color="#bf8000"/>
      <stop offset=".5" stop-color="#ffc000"/>
      <stop offset="1" stop-color="#947800"/>
    </linearGradient>
  </defs>
  <circle class="st3" cx="64.6" cy="35.3" r="3.4"/>
  <path class="st1" d="M50,63.7c7.6,0,13.7-6.1,13.7-13.7s-6.1-13.7-13.7-13.7-13.7,6.1-13.7,13.7,6.1,13.7,13.7,13.7ZM50,41.1c4.9,0,8.9,4,8.9,8.9,0,4.9-4,8.9-8.9,8.9s-8.9-4-8.9-8.9,4-8.9,8.9-8.9Z"/>
  <path class="st2" d="M36.3,77.4h27.4c7.6,0,13.7-6.1,13.7-13.7v-27.4c0-7.6-6.1-13.7-13.7-13.7h-27.4c-7.6,0-13.7,6.1-13.7,13.7v27.4c0,7.6,6.1,13.7,13.7,13.7ZM27.4,36.3c0-4.9,4-8.9,8.9-8.9h27.4c4.9,0,8.9,4,8.9,8.9v27.4c0,4.9-4,8.9-8.9,8.9h-27.4c-4.9,0-8.9-4-8.9-8.9,0,0,0-27.4,0-27.4Z"/>
  <path class="st0" d="M50,100c-13.4,0-25.9-5.2-35.4-14.6C5.2,75.9,0,63.4,0,50S5.2,24.1,14.6,14.6C24.1,5.2,36.6,0,50,0s25.9,5.2,35.4,14.6c9.4,9.4,14.6,22,14.6,35.4s-5.2,25.9-14.6,35.4c-9.4,9.4-22,14.6-35.4,14.6ZM50,4.1C24.7,4.1,4.1,24.7,4.1,50s20.6,45.9,45.9,45.9,45.9-20.6,45.9-45.9S75.3,4.1,50,4.1Z"/>
</svg>