<?xml version="1.0" encoding="UTF-8"?>
<svg id="Capa_1" data-name="Capa 1" xmlns="http://www.w3.org/2000/svg" xmlns:xlink="http://www.w3.org/1999/xlink" viewBox="0 0 100 100">
  <defs>
    <linearGradient id="Nueva_muestra_de_degradado_1" data-name="Nueva muestra de degradado 1" x1="2.09" y1="1.24" x2="97.62" y2="98.47" gradientUnits="userSpaceOnUse">
      <stop offset="0" stop-color="#bf8000"/>
      <stop offset=".51" stop-color="#ffc000"/>
      <stop offset="1" stop-color="#947800"/>
    </linearGradient>
  </defs>
  <rect x="24.68" y="39.78" width="11.14" height="34.96" style="fill: #fff;"/>
  <path d="M61.4,38.91c-3.08.56-6.22,1.96-8.71,5.78v-4.91h-10.39v34.96h10.92v-19.42c-.01-1.67.52-3.31,1.53-4.65,1.17-1.59,3.04-2.51,5.02-2.46,5.47,0,5.32,6.44,5.32,7.41v19.12h10.94v-23.55c0-9.95-9.15-13.28-14.62-12.29Z" style="fill: #fff;"/>
  <circle cx="30.26" cy="28.93" r="6.27" transform="translate(-11.59 29.87) rotate(-45)" style="fill: #fff;"/>
  <path d="M100,50C100,22.39,77.61,0,50,0S0,22.39,0,50s22.39,50,50,50,50-22.39,50-50ZM35.83,74.74h-11.14v-34.96h11.14v34.96ZM30.26,35.2c-3.46,0-6.27-2.81-6.27-6.27s2.81-6.27,6.27-6.27,6.27,2.81,6.27,6.27-2.81,6.27-6.27,6.27ZM65.08,74.74v-19.12c0-.97.15-7.41-5.32-7.41-1.97-.05-3.85.87-5.02,2.46-1,1.34-1.54,2.97-1.53,4.65v19.42h-10.92v-34.96h10.39v4.91c2.49-3.82,5.62-5.21,8.71-5.78,5.47-1,14.62,2.33,14.62,12.29v23.55s-10.94,0-10.94,0Z" style="fill: url(#Nueva_muestra_de_degradado_1);"/>
</svg>