<?xml version="1.0" encoding="UTF-8"?>
<svg id="Capa_1" data-name="Capa 1" xmlns="http://www.w3.org/2000/svg" xmlns:xlink="http://www.w3.org/1999/xlink" viewBox="0 0 100 100">
  <defs>
    <linearGradient id="Nueva_muestra_de_degradado_1" data-name="Nueva muestra de degradado 1" x1="-5.83" y1="17.01" x2="76.09" y2="105.73" gradientUnits="userSpaceOnUse">
      <stop offset="0" stop-color="#bf8000"/>
      <stop offset=".51" stop-color="#ffc000"/>
      <stop offset="1" stop-color="#947800"/>
    </linearGradient>
    <linearGradient id="Nueva_muestra_de_degradado_1-2" data-name="Nueva muestra de degradado 1" x1="7.62" y1="4.59" x2="89.54" y2="93.31" xlink:href="#Nueva_muestra_de_degradado_1"/>
    <linearGradient id="Nueva_muestra_de_degradado_1-3" data-name="Nueva muestra de degradado 1" x1="7.71" y1="4.5" x2="89.64" y2="93.23" gradientTransform="translate(9.97 -7.72) rotate(16.85)" xlink:href="#Nueva_muestra_de_degradado_1"/>
    <linearGradient id="Nueva_muestra_de_degradado_1-4" data-name="Nueva muestra de degradado 1" x1="7.86" y1="4.36" x2="89.78" y2="93.09" xlink:href="#Nueva_muestra_de_degradado_1"/>
  </defs>
  <rect x="25.72" y="40.19" width="10.69" height="33.53" style="fill: url(#Nueva_muestra_de_degradado_1);"/>
  <path d="M60.93,39.36c-2.96.54-5.96,1.88-8.35,5.54v-4.71h-9.97v33.53h10.48v-18.63c-.01-1.61.5-3.17,1.46-4.46,1.12-1.52,2.92-2.4,4.81-2.36,5.25,0,5.1,6.18,5.1,7.11v18.33h10.49v-22.58c0-9.54-8.77-12.74-14.02-11.78Z" style="fill: url(#Nueva_muestra_de_degradado_1-2);"/>
  <circle cx="31.06" cy="29.79" r="6.01" transform="translate(-7.3 10.28) rotate(-16.85)" style="fill: url(#Nueva_muestra_de_degradado_1-3);"/>
  <path d="M50,100c-13.36,0-25.91-5.2-35.36-14.64C5.2,75.91,0,63.36,0,50S5.2,24.09,14.64,14.64C24.09,5.2,36.64,0,50,0s25.91,5.2,35.36,14.64c9.44,9.44,14.64,22,14.64,35.36s-5.2,25.91-14.64,35.36c-9.44,9.44-22,14.64-35.36,14.64ZM50,4.09C24.69,4.09,4.09,24.69,4.09,50s20.59,45.91,45.91,45.91,45.91-20.59,45.91-45.91S75.31,4.09,50,4.09Z" style="fill: url(#Nueva_muestra_de_degradado_1-4);"/>
</svg>