<?xml version="1.0" encoding="UTF-8"?>
<svg id="Capa_1" xmlns="http://www.w3.org/2000/svg" version="1.1" xmlns:xlink="http://www.w3.org/1999/xlink" viewBox="0 0 100 100">
  <!-- Generator: Adobe Illustrator 29.0.0, SVG Export Plug-In . SVG Version: 2.1.0 Build 186)  -->
  <defs>
    <style>
      .st0 {
        fill: #fff;
      }

      .st1 {
        fill: url(#Degradado_sin_nombre);
      }
    </style>
    <linearGradient id="Degradado_sin_nombre" data-name="Degradado sin nombre" x1="1.1" y1=".6" x2="99" y2="99.6" gradientUnits="userSpaceOnUse">
      <stop offset="0" stop-color="#bf8000"/>
      <stop offset=".5" stop-color="#ffc000"/>
      <stop offset="1" stop-color="#947800"/>
    </linearGradient>
  </defs>
  <circle class="st1" cx="50" cy="50" r="50"/>
  <path class="st0" d="M17.7,50.1c0-17.7,14.5-32.4,32.2-32.4,17.7,0,32.4,14.7,32.3,32.3,0,17.4-14.5,32-32,32.2-17.6.2-32.4-14.5-32.5-32.1h0ZM48,78.5v-17.1c-3.7.2-7.1.5-11,.8,2.3,7,4.1,13,11,16.4ZM51.9,78.7c7-4.1,9-10.1,10.9-16.8-3.9-.2-7.3-.3-10.9-.5v17.3ZM20.7,50.1c.9,4.2,1.8,7.8,2.6,11.6,3.6-.9,6.6-1.6,9.8-2.4-.3-3.2-.6-6.1-.9-9.2h-11.5ZM33.7,37.3c-8.9-3.5-11.2-1.8-11.9,8.9h10.6c.4-3,.8-5.8,1.2-8.9ZM68,50.2c-2,9.2-.7,10.8,9.1,10.5.7-3.3,1.4-6.7,2.1-10.5h-11.2,0ZM67.5,46.3h11.5c-1.6-4.2-2.9-7.9-4.3-11.8-3.4,1.1-5.9,1.9-8.4,2.7.4,3.1.8,5.9,1.3,9.1ZM48.2,50.2h-12.6c.4,3.1.8,5.8,1.1,8.6,4.2-.4,7.8-.8,11.5-1.2,0,0,0-7.5,0-7.5ZM64.3,50.2h-12.2v7.7c3.9.2,7.4.3,11.3.5.3-2.7.6-5.2.9-8.2ZM48.1,21.4c-5.9,2.9-8.1,7.5-9.9,13.1,3.5.4,6.6.8,9.9,1.2v-14.3ZM35.9,46.1h12.1v-7c-3.7-.4-7.2-.8-10.9-1.2-.4,2.9-.8,5.3-1.2,8.2ZM52.1,21.6v14.2c3.4-.5,6.4-.9,9.7-1.3-2.1-5.5-4-10.4-9.7-12.8ZM63,37.9c-4.2.5-7.5.9-11,1.2v7h11.9c-.3-2.8-.6-5.3-1-8.2h0ZM33.3,62.9c-2.7.6-5.2,1.2-7.6,1.8l-.5,1.5c4.4,3.7,8.8,7.3,13.2,10.9.2-.3.5-.6.7-.9-1.9-4.3-3.7-8.6-5.8-13.3h0ZM61.1,75.8c.3.4.7.8,1,1.2,4.3-3.8,8.6-7.5,12.9-11.2-.2-.4-.5-.9-.7-1.3-2.6-.6-5.3-1.2-7.7-1.7-2,4.7-3.7,8.9-5.5,13.1ZM71.5,31.9c.2-.4.3-.8.5-1.3-3.7-2.6-7.3-5.1-10.9-7.7-.2.3-.3.5-.5.8,1.6,3.3,3.2,6.6,4.9,10,2.1-.6,4-1.2,5.9-1.8h0ZM39.3,23.9c-.2-.3-.4-.6-.6-1-3.6,2.6-7.1,5.2-11.6,8.5,3.4,1,5.4,1.6,7.3,2.2,1.8-3.6,3.3-6.6,4.8-9.7Z"/>
</svg>