<?xml version="1.0" encoding="UTF-8"?>
<svg id="Capa_1" data-name="Capa 1" xmlns="http://www.w3.org/2000/svg" xmlns:xlink="http://www.w3.org/1999/xlink" viewBox="0 0 100 100">
  <defs>
    <linearGradient id="Nueva_muestra_de_degradado_1" data-name="Nueva muestra de degradado 1" x1="3.92" y1="2.52" x2="96.33" y2="97.76" gradientUnits="userSpaceOnUse">
      <stop offset="0" stop-color="#bf8000"/>
      <stop offset=".51" stop-color="#ffc000"/>
      <stop offset="1" stop-color="#947800"/>
    </linearGradient>
    <linearGradient id="Nueva_muestra_de_degradado_1-2" data-name="Nueva muestra de degradado 1" x1="3.93" y1="2.51" x2="96.33" y2="97.76" xlink:href="#Nueva_muestra_de_degradado_1"/>
  </defs>
  <path d="M18.69,50.13c-.06-17.21,14.06-31.42,31.23-31.43,17.16,0,31.41,14.22,31.39,31.34-.03,16.91-14.1,31.06-31.08,31.26-17.08.2-31.47-14.03-31.53-31.17ZM48.08,77.68v-16.62c-3.58.24-6.89.47-10.68.72,2.25,6.76,4.02,12.65,10.68,15.89ZM51.88,77.85c6.82-3.92,8.78-9.76,10.55-16.3-3.83-.18-7.09-.33-10.55-.49v16.79ZM21.59,50.13c.9,4.02,1.7,7.56,2.53,11.28,3.51-.85,6.37-1.55,9.47-2.31-.3-3.11-.57-5.94-.86-8.97h-11.14ZM34.16,37.67c-8.67-3.43-10.89-1.73-11.54,8.6h10.32c.41-2.94.79-5.62,1.21-8.6ZM67.42,50.15c-1.97,8.96-.68,10.5,8.78,10.2.65-3.21,1.32-6.53,2.07-10.2h-10.85ZM67.01,46.38h11.12c-1.5-4.07-2.85-7.7-4.22-11.42-3.27,1.05-5.68,1.83-8.17,2.63.44,3.03.82,5.73,1.27,8.79ZM48.21,50.24h-12.25c.39,3.02.72,5.67,1.07,8.37,4.07-.41,7.59-.76,11.18-1.12v-7.25ZM63.91,50.23h-11.83v7.45c3.8.18,7.22.34,10.92.51.3-2.63.57-5.03.9-7.96ZM48.16,22.24c-5.71,2.78-7.85,7.31-9.62,12.74,3.37.4,6.39.77,9.62,1.15v-13.9ZM36.3,46.22h11.73v-6.79c-3.62-.38-6.97-.73-10.6-1.12-.4,2.78-.74,5.16-1.14,7.9ZM52.05,22.5v13.75c3.31-.45,6.23-.85,9.44-1.29-2.02-5.35-3.89-10.09-9.44-12.46ZM62.57,38.3c-4.05.46-7.3.83-10.63,1.21v6.74h11.55c-.32-2.73-.6-5.13-.93-7.95ZM33.83,62.53c-2.59.61-5,1.18-7.41,1.76-.16.48-.33.97-.49,1.45,4.27,3.54,8.53,7.08,12.8,10.62.24-.3.48-.6.71-.91-1.81-4.18-3.63-8.36-5.61-12.92ZM60.8,75.02c.32.38.65.75.97,1.13,4.15-3.64,8.31-7.28,12.46-10.91-.23-.43-.45-.85-.68-1.28-2.57-.57-5.13-1.14-7.45-1.66-1.91,4.58-3.61,8.65-5.3,12.73ZM70.83,32.47c.17-.41.33-.82.5-1.23-3.54-2.5-7.08-5-10.62-7.5-.15.25-.29.51-.44.76,1.57,3.18,3.14,6.36,4.79,9.71,2-.6,3.89-1.17,5.77-1.74ZM39.6,24.65c-.19-.31-.39-.62-.58-.93-3.46,2.54-6.92,5.08-11.23,8.23,3.3.98,5.28,1.56,7.13,2.11,1.73-3.48,3.2-6.45,4.68-9.42Z" style="fill: url(#Nueva_muestra_de_degradado_1);"/>
  <path d="M50,100c-13.36,0-25.91-5.2-35.36-14.64C5.2,75.91,0,63.36,0,50S5.2,24.09,14.64,14.64C24.09,5.2,36.64,0,50,0s25.91,5.2,35.36,14.64c9.44,9.44,14.64,22,14.64,35.36s-5.2,25.91-14.64,35.36c-9.44,9.44-22,14.64-35.36,14.64ZM50,4.09C24.69,4.09,4.09,24.69,4.09,50s20.59,45.9,45.91,45.9,45.9-20.59,45.9-45.9S75.31,4.09,50,4.09Z" style="fill: url(#Nueva_muestra_de_degradado_1-2);"/>
</svg>